HIERARCHY
ROOT Hips
{
	OFFSET	0.00	0.00	0.00
	CHANNELS 6 Xposition Yposition Zposition Zrotation Xrotation Yrotation
	JOINT LeftUpLeg
	{
		OFFSET	 0.126116	-0.014019	-0.065224
		CHANNELS 3 Zrotation Xrotation Yrotation
		JOINT LeftLeg
		{
			OFFSET	 0.000000	 0.000000	 0.569914
			CHANNELS 3 Zrotation Xrotation Yrotation
			JOINT LeftFoot
			{
				OFFSET	 0.000000	 0.000000	 0.544423
				CHANNELS 3 Zrotation Xrotation Yrotation
				JOINT LeftToeBase
				{
					OFFSET	 0.000000	 0.000000	 0.207117
					CHANNELS 3 Zrotation Xrotation Yrotation
					End Site
					{
						OFFSET	 0.000000	 0.000000	 0.207117
					}
				}
			}
		}
	}
	JOINT RightUpLeg
	{
		OFFSET	-0.124023	-0.008373	-0.065224
		CHANNELS 3 Zrotation Xrotation Yrotation
		JOINT RightLeg
		{
			OFFSET	 0.000000	 0.000000	 0.570047
			CHANNELS 3 Zrotation Xrotation Yrotation
			JOINT RightFoot
			{
				OFFSET	 0.000000	 0.000000	 0.544354
				CHANNELS 3 Zrotation Xrotation Yrotation
				JOINT RightToeBase
				{
					OFFSET	 0.000000	 0.000000	 0.207540
					CHANNELS 3 Zrotation Xrotation Yrotation
					End Site
					{
						OFFSET	 0.000000	 0.000000	 0.207540
					}
				}
			}
		}
	}
	JOINT Spine
	{
		OFFSET	 0.000184	-0.007763	 0.117403
		CHANNELS 3 Zrotation Xrotation Yrotation
		JOINT Spine1
		{
			OFFSET	 0.000000	 0.000000	 0.137269
			CHANNELS 3 Zrotation Xrotation Yrotation
			JOINT Spine2
			{
				OFFSET	 0.000000	 0.000000	 0.156879
				CHANNELS 3 Zrotation Xrotation Yrotation
				JOINT LeftShoulder
				{
					OFFSET	 0.080501	-0.002496	 0.160144
					CHANNELS 3 Zrotation Xrotation Yrotation
					JOINT LeftArm
					{
						OFFSET	 0.000000	 0.000000	 0.164363
						CHANNELS 3 Zrotation Xrotation Yrotation
						JOINT LeftForeArm
						{
							OFFSET	 0.000000	 0.000000	 0.364576
							CHANNELS 3 Zrotation Xrotation Yrotation
							JOINT LeftHand
							{
								OFFSET	 0.000000	 0.000000	 0.360812
								CHANNELS 3 Zrotation Xrotation Yrotation
								JOINT LeftHandIndex1
								{
									OFFSET	 0.000000	 0.000000	 0.086006
									CHANNELS 3 Zrotation Xrotation Yrotation
									JOINT LeftHandIndex2
									{
										OFFSET	 0.000000	 0.000000	 0.047236
										CHANNELS 3 Zrotation Xrotation Yrotation
										JOINT LeftHandIndex3
										{
											OFFSET	-0.004284	-0.000551	 0.038166
											CHANNELS 3 Zrotation Xrotation Yrotation
											End Site
											{
												OFFSET	-0.004284	-0.000551	 0.038166
											}
										}
									}
								}
							}
						}
					}
				}
				JOINT Neck
				{
					OFFSET	 0.000000	 0.000000	 0.176489
					CHANNELS 3 Zrotation Xrotation Yrotation
					JOINT Head
					{
						OFFSET	 0.000000	-0.001747	 0.077940
						CHANNELS 3 Zrotation Xrotation Yrotation
						End Site
						{
							OFFSET	 0.000000	-0.001747	 0.077940
						}
					}
				}
				JOINT RightShoulder
				{
					OFFSET	-0.080363	 0.000306	 0.159706
					CHANNELS 3 Zrotation Xrotation Yrotation
					JOINT RightArm
					{
						OFFSET	 0.000000	 0.000000	 0.164196
						CHANNELS 3 Zrotation Xrotation Yrotation
						JOINT RightForeArm
						{
							OFFSET	 0.000000	 0.000000	 0.365611
							CHANNELS 3 Zrotation Xrotation Yrotation
							JOINT RightHand
							{
								OFFSET	 0.000000	 0.000000	 0.360648
								CHANNELS 3 Zrotation Xrotation Yrotation
								JOINT RightHandIndex1
								{
									OFFSET	 0.000000	 0.000000	 0.069977
									CHANNELS 3 Zrotation Xrotation Yrotation
									JOINT RightHandIndex2
									{
										OFFSET	 0.000000	 0.000000	 0.052305
										CHANNELS 3 Zrotation Xrotation Yrotation
										JOINT RightHandIndex3
										{
											OFFSET	 0.009002	-0.000782	 0.042196
											CHANNELS 3 Zrotation Xrotation Yrotation
											End Site
											{
												OFFSET	 0.009002	-0.000782	 0.042196
											}
										}
									}
								}
							}
						}
					}
				}
			}
		}
	}
}
MOTION
Frames:    7
Frame Time: 0.03333334
-0.057105	-2.229965	 1.235241	 3.998750	-1.707940	-3.022165	 0.547813	-7.871349	-171.758900	 0.287489	-29.205000	-0.024461	 23.949160	 71.776400	-26.844280	-2.371409	 31.274850	-0.062245	-3.011203	-28.628090	-175.705600	 10.136230	-53.070740	 8.738187	 9.003261	 64.748360	-4.574613	 2.357821	 33.168860	 0.107148	-14.581940	 8.920747	 1.933352	-1.104057	 2.331884	-0.302160	 0.318582	-2.220509	 0.173935	-93.760800	 58.859480	 175.779100	 16.305340	 37.002000	-40.640440	-13.451110	 2.226081	-9.677797	 2.040746	-41.371170	-3.778663	-4.869491	 19.239750	-2.786430	-3.891078	 21.350450	 2.212458	-4.808240	 5.545738	 0.146954	-0.128458	-5.012387	 0.157355	-1.942430	 2.262716	 2.792282	 89.834710	 61.578700	-179.874900	-21.500270	 53.827960	 12.192390	 11.070840	 2.621256	 22.015880	-9.437716	-27.160970	-1.434742	 6.305005	 26.046140	-0.578904	 1.720535	 45.999950	-6.845531	 0.338919	 25.092010	 3.664316
-0.058700	-2.262061	 1.235808	 5.022919	-1.185466	-2.992202	-0.472939	-6.654963	-171.984200	 0.902068	-28.645400	 0.263354	 23.974550	 72.366490	-27.396920	-2.369621	 31.578350	-0.069094	-5.174600	-30.967950	-175.695700	 10.352580	-49.187330	 8.454115	 12.391560	 69.226750	-9.061857	 2.358856	 33.017300	 0.103625	-15.287100	 8.662674	 1.781377	-1.182430	 2.120744	-0.268708	 0.163582	-2.326512	 0.202139	-93.948880	 59.009450	 175.360000	 15.992580	 34.982910	-41.976220	-14.451400	 2.230358	-9.667461	 1.802533	-43.400310	-5.470399	-4.869023	 19.249090	-2.786528	-3.883554	 21.446870	 2.204813	-4.808272	 5.545353	 0.146974	-0.072233	-5.079494	 0.186031	-1.908306	 2.179687	 2.583648	 89.775650	 61.653750	 179.984500	-20.973070	 54.810860	 10.529100	 10.780490	 2.531601	 21.458830	-10.289960	-28.212640	-2.086496	 6.292952	 24.759060	-0.537402	 1.901117	 44.574070	-7.007029	 0.552999	 24.158830	 3.554743
-0.060768	-2.303020	 1.234561	 6.022939	-0.266264	-3.051270	-1.504566	-5.384281	-172.209000	 1.252906	-27.999270	 0.422633	 24.033480	 73.157550	-27.720590	-2.367880	 31.866110	-0.075619	-7.834181	-33.826500	-175.947000	 10.724200	-43.171430	 7.912084	 17.610660	 72.911310	-15.813670	 2.359128	 32.976930	 0.102686	-15.778270	 8.059982	 1.547620	-1.279624	 1.980989	-0.062924	-0.021462	-2.494452	 0.149352	-94.196340	 59.018660	 174.830700	 15.033880	 32.482620	-43.409840	-14.814470	 2.223401	-9.643549	 2.592535	-45.853700	-5.978960	-4.861169	 19.460690	-2.802667	-3.869350	 21.628330	 2.190378	-4.802236	 5.616483	 0.142817	-0.021480	-5.119071	 0.257233	-1.925208	 2.114539	 2.447741	 89.680470	 61.769100	 179.756600	-20.294690	 55.972640	 8.224297	 10.011010	 2.355096	 21.459040	-11.764700	-29.357060	-3.036868	 6.267768	 22.957670	-0.560966	 2.107193	 42.843540	-7.189682	 0.923788	 22.505120	 3.371814
-0.062221	-2.340558	 1.231970	 6.425997	 0.476358	-3.401217	-1.898140	-3.934545	-172.116700	 1.436190	-27.191310	 0.495154	 24.887290	 74.265910	-28.736310	-2.365481	 32.250590	-0.084396	-8.715517	-35.695740	-175.843300	 10.783560	-36.905510	 6.991013	 20.229180	 72.125140	-19.883960	 2.361432	 32.631580	 0.094693	-15.827830	 7.426493	 1.653752	-1.320056	 2.224545	 0.106692	-0.130214	-2.696512	 0.079881	-94.374710	 58.944700	 174.461800	 13.935840	 30.376920	-44.712490	-15.583070	 2.217334	-9.616278	 3.809406	-47.962640	-4.488945	-4.845854	 19.817100	-2.819321	-3.850525	 21.867410	 2.171255	-4.790458	 5.755161	 0.134671	-0.004749	-5.185073	 0.316108	-1.981144	 2.068920	 2.437463	 89.554510	 61.924300	 179.451900	-19.471900	 56.908590	 6.226749	 8.840551	 2.087521	 21.534030	-13.699050	-29.912940	-4.520864	 6.236705	 21.160070	-0.623000	 2.261993	 41.465560	-7.325618	 1.318334	 20.693900	 3.187087
-0.064157	-2.381430	 1.228153	 6.571794	 0.870694	-3.720635	-2.133914	-1.917098	-172.082900	 1.538804	-26.429370	 0.527981	 25.305480	 75.078540	-29.221090	-2.359052	 33.222790	-0.106839	-7.810328	-36.505770	-175.316100	 10.068380	-30.062210	 5.472108	 34.027070	 74.849700	-34.343770	 2.353109	 33.834430	 0.122747	-15.843630	 6.894123	 1.819302	-1.348513	 2.894209	 0.202088	-0.162775	-2.993875	 0.048179	-94.474440	 58.871850	 174.261400	 12.488930	 28.695820	-45.913640	-16.175270	 2.204819	-9.577936	 4.863114	-49.246700	-2.920119	-4.826605	 20.200440	-2.822583	-3.824965	 22.189760	 2.145283	-4.771110	 5.982250	 0.121281	 0.021791	-5.273712	 0.341696	-1.982441	 1.988379	 2.391247	 89.451320	 62.025990	 179.200400	-18.223660	 57.672760	 4.175393	 7.458670	 1.776932	 21.100740	-15.863430	-30.295550	-6.549316	 6.197865	 19.142790	-0.705088	 2.520529	 39.001870	-7.549909	 1.752459	 18.640960	 2.996247
-0.067646	-2.432766	 1.221376	 6.863403	 0.966071	-4.008154	-2.588950	 0.932964	-172.194200	 1.758889	-25.772120	 0.611495	 24.603470	 75.553090	-28.632330	-2.340210	 35.701230	-0.165856	-7.228781	-38.067230	-174.906400	 10.346150	-24.463040	 4.646497	 38.688330	 73.659470	-40.117470	 2.336478	 35.941280	 0.173417	-16.139820	 6.870440	 1.973672	-1.405174	 3.202981	 0.330549	-0.159733	-3.347997	-0.000169	-94.541370	 58.895900	 174.115000	 10.798410	 27.530860	-46.966860	-16.220450	 2.178599	-9.524063	 5.520027	-50.931020	-2.172358	-4.841319	 20.476700	-2.989398	-3.792925	 22.589800	 2.112750	-4.738150	 6.367547	 0.098357	 0.095725	-5.383174	 0.354586	-1.893064	 1.959252	 2.137708	 89.365070	 61.982830	 178.993500	-16.384380	 58.246000	 1.349102	 5.984947	 1.478968	 20.241760	-18.002680	-30.760270	-8.910512	 6.165958	 16.657630	-0.701042	 2.830785	 35.750130	-7.813890	 2.267069	 16.128910	 2.787776
-0.072619	-2.480076	 1.212820	 7.097722	 0.917116	-3.806124	-3.115924	 3.450452	-172.821700	 2.201080	-25.860270	 0.806440	 21.367680	 74.812420	-25.574920	-2.296432	 40.143770	-0.279487	-6.837627	-40.934570	-175.130800	 10.116260	-23.061920	 4.303478	 27.197710	 69.131910	-28.667740	 2.338099	 35.750360	 0.168732	-16.522160	 6.852188	 1.823870	-1.405961	 3.671277	 0.289378	-0.150904	-3.641532	-0.013416	-94.525090	 59.152550	 174.107000	 9.365822	 27.109490	-47.914630	-16.175290	 2.147736	-9.459279	 5.504579	-52.228980	-2.143390	-4.871640	 20.582780	-3.197171	-3.769049	 22.885310	 2.088510	-4.697729	 6.837100	 0.070099	 0.166669	-5.467871	 0.291465	-1.732871	 2.001652	 1.966067	 89.356440	 61.715750	 178.982700	-14.969390	 58.405730	-1.561110	 4.835713	 1.181476	 20.693580	-19.631370	-30.922400	-10.665410	 6.181937	 14.480650	-0.484599	 2.991128	 33.930780	-7.947766	 2.691315	 13.997460	 2.631140
